<svg xmlns="http://www.w3.org/2000/svg" viewBox="0 0 512 512" role="img" aria-label="9M2PJU Coverage Prediction logo">
  <defs>
    <linearGradient id="sky" x1="120" y1="72" x2="392" y2="440" gradientUnits="userSpaceOnUse">
      <stop offset="0" stop-color="#eaf8ff"/>
      <stop offset="1" stop-color="#bdeaff"/>
    </linearGradient>
    <linearGradient id="sweep" x1="164" y1="170" x2="344" y2="348" gradientUnits="userSpaceOnUse">
      <stop offset="0" stop-color="#4dbdff"/>
      <stop offset="1" stop-color="#0b4f8f"/>
    </linearGradient>
    <filter id="soft-shadow" x="-20%" y="-20%" width="140%" height="140%">
      <feDropShadow dx="0" dy="12" stdDeviation="16" flood-color="#0b2440" flood-opacity="0.18"/>
    </filter>
  </defs>

  <rect width="512" height="512" rx="112" fill="#ffffff"/>
  <circle cx="256" cy="256" r="192" fill="url(#sky)" filter="url(#soft-shadow)"/>
  <circle cx="256" cy="256" r="166" fill="none" stroke="#ffffff" stroke-width="12" opacity="0.9"/>

  <path d="M105 340c36-36 70-50 106-42 34 8 55 38 92 41 34 2 65-18 104-55" fill="none" stroke="#3fbf74" stroke-width="24" stroke-linecap="round"/>
  <path d="M111 366c37-25 72-33 106-24 38 10 62 34 100 31 31-2 62-17 92-42" fill="none" stroke="#0b4f8f" stroke-width="10" stroke-linecap="round" opacity="0.24"/>

  <path d="M256 142v214" stroke="#072f5f" stroke-width="22" stroke-linecap="round"/>
  <path d="M213 356h86" stroke="#072f5f" stroke-width="22" stroke-linecap="round"/>
  <path d="M226 196l30-54 30 54" fill="none" stroke="#072f5f" stroke-width="18" stroke-linecap="round" stroke-linejoin="round"/>
  <circle cx="256" cy="226" r="19" fill="#4dbdff" stroke="#072f5f" stroke-width="10"/>

  <path d="M202 232a67 67 0 0 1 108 0" fill="none" stroke="#4dbdff" stroke-width="18" stroke-linecap="round"/>
  <path d="M165 207a113 113 0 0 1 182 0" fill="none" stroke="#0b4f8f" stroke-width="15" stroke-linecap="round" opacity="0.82"/>
  <path d="M132 181a159 159 0 0 1 248 0" fill="none" stroke="#4dbdff" stroke-width="12" stroke-linecap="round" opacity="0.65"/>

  <path d="M256 226l122 95a154 154 0 0 1-244 0z" fill="url(#sweep)" opacity="0.16"/>
  <path d="M158 324c57-45 142-45 196 0" fill="none" stroke="#ffffff" stroke-width="10" stroke-linecap="round" opacity="0.85"/>
  <path d="M185 296c41-28 101-28 142 0" fill="none" stroke="#ffffff" stroke-width="8" stroke-linecap="round" opacity="0.78"/>

  <circle cx="256" cy="256" r="192" fill="none" stroke="#072f5f" stroke-width="14"/>
</svg>
