<svg xmlns="http://www.w3.org/2000/svg" viewBox="0 0 1024 1024" role="img" aria-label="9M2PJU brand logo">
  <defs>
    <linearGradient id="water" x1="150" x2="870" y1="560" y2="835" gradientUnits="userSpaceOnUse">
      <stop offset="0" stop-color="#7edcff"/>
      <stop offset="0.5" stop-color="#00a6f3"/>
      <stop offset="1" stop-color="#0b4f9c"/>
    </linearGradient>
    <linearGradient id="coverage" x1="280" x2="735" y1="620" y2="805" gradientUnits="userSpaceOnUse">
      <stop offset="0" stop-color="#0b4f9c"/>
      <stop offset="0.55" stop-color="#00a6f3"/>
      <stop offset="1" stop-color="#0752a0"/>
    </linearGradient>
    <linearGradient id="mountain" x1="220" x2="790" y1="440" y2="650" gradientUnits="userSpaceOnUse">
      <stop offset="0" stop-color="#67bd43"/>
      <stop offset="1" stop-color="#298337"/>
    </linearGradient>
    <linearGradient id="navy" x1="180" x2="840" y1="120" y2="960" gradientUnits="userSpaceOnUse">
      <stop offset="0" stop-color="#003a78"/>
      <stop offset="1" stop-color="#002353"/>
    </linearGradient>
    <filter id="soft" x="-20%" y="-20%" width="140%" height="140%">
      <feDropShadow dx="0" dy="18" stdDeviation="18" flood-color="#05244a" flood-opacity="0.16"/>
    </filter>
    <clipPath id="sceneClip">
      <circle cx="512" cy="512" r="398"/>
    </clipPath>
    <clipPath id="waterClip">
      <path d="M170 566c72 7 151 11 236 11h212c86 0 165-4 236-11v258H170z"/>
    </clipPath>
  </defs>

  <rect width="1024" height="1024" fill="#ffffff"/>
  <circle cx="512" cy="512" r="398" fill="#ffffff" filter="url(#soft)"/>
  <path d="M201 805a424 424 0 1 1 622 0" fill="none" stroke="url(#navy)" stroke-width="27" stroke-linecap="square"/>
  <path d="M232 776a360 360 0 0 1 79-573" fill="none" stroke="#1aa7f2" stroke-width="14" stroke-linecap="round"/>
  <path d="M792 776a360 360 0 0 0-79-573" fill="none" stroke="#1aa7f2" stroke-width="14" stroke-linecap="round"/>

  <g clip-path="url(#sceneClip)">
    <path d="M185 560l116-70 120-30 90-58 103 57 44 42 84-51 97 62 91 59H185z" fill="url(#mountain)"/>
    <path d="M185 573c80 8 157 12 232 12h190c75 0 152-4 232-12v248H185z" fill="url(#water)"/>

    <g clip-path="url(#waterClip)" fill="none" stroke="#ffffff" stroke-linecap="round" stroke-linejoin="round">
      <path d="M122 597c100 15 229 23 390 23s290-8 390-23" stroke-width="14"/>
      <path d="M132 650c95 10 222 15 380 15s285-5 380-15" stroke-width="9" opacity="0.94"/>
      <path d="M144 707c91 7 214 10 368 10s277-3 368-10" stroke-width="8" opacity="0.9"/>
      <path d="M160 775c83 4 200 6 352 6s269-2 352-6" stroke-width="8" opacity="0.86"/>
      <path d="M316 585l150 267" stroke-width="8" opacity="0.9"/>
      <path d="M707 585L558 852" stroke-width="8" opacity="0.9"/>
      <path d="M512 578v294" stroke-width="8" opacity="0.9"/>
      <path d="M185 842l142-190" stroke-width="8" opacity="0.74"/>
      <path d="M839 842L697 652" stroke-width="8" opacity="0.74"/>
    </g>

    <path d="M249 628c59-12 97-10 113 7 19 21-18 44 4 65 18 17 71-2 101 17 30 19 7 54 39 67 34 14 70-27 122-21 44 5 78 41 121 15 42-25-4-63 26-82 24-16 76 6 95-18 16-20-11-40-56-61-80-37-223-47-565 11z" fill="url(#coverage)" stroke="#ffffff" stroke-width="10" stroke-linejoin="round"/>
    <ellipse cx="512" cy="632" rx="91" ry="32" fill="#0b4f9c" stroke="#ffffff" stroke-width="9"/>
    <ellipse cx="512" cy="632" rx="44" ry="15" fill="#0b78cf" stroke="#ffffff" stroke-width="6"/>
  </g>

  <g fill="none" stroke-linecap="round" stroke-linejoin="round">
    <path d="M436 624l76-388 76 388" stroke="#003a78" stroke-width="23"/>
    <path d="M453 535h118" stroke="#003a78" stroke-width="18"/>
    <path d="M465 469h94" stroke="#003a78" stroke-width="18"/>
    <path d="M479 396h66" stroke="#003a78" stroke-width="16"/>
    <path d="M456 541l116-112M568 541L452 429M471 462l76-74M552 462l-75-74" stroke="#003a78" stroke-width="16"/>
    <path d="M431 624h37M556 624h37" stroke="#003a78" stroke-width="23"/>
    <path d="M512 238v376" stroke="#003a78" stroke-width="7" opacity="0.42"/>
  </g>
  <circle cx="512" cy="238" r="29" fill="#003a78"/>

  <g fill="none" stroke="#1aa7f2" stroke-width="18" stroke-linecap="round">
    <path d="M455 279a84 84 0 0 0 0-82"/>
    <path d="M420 326a145 145 0 0 1 0-176"/>
    <path d="M383 372a204 204 0 0 1 0-268"/>
    <path d="M569 279a84 84 0 0 1 0-82"/>
    <path d="M604 326a145 145 0 0 0 0-176"/>
    <path d="M641 372a204 204 0 0 0 0-268"/>
  </g>

  <path d="M224 797h576l64 66c-58 60-182 96-352 96s-294-36-352-96z" fill="url(#navy)"/>
  <text x="512" y="898" fill="#ffffff" font-family="Arial Black, Montserrat, Arial, sans-serif" font-size="98" font-weight="900" text-anchor="middle" letter-spacing="8">9M2PJU</text>
</svg>
